<svg width="1280" height="720" viewBox="0 0 1280 720" fill="none" xmlns="http://www.w3.org/2000/svg">
<rect width="1280" height="720" fill="url(#paint0_linear_1_2)"/>
<g filter="url(#filter0_d_1_2)">
<path d="M68.9134 108.182L68.9134 70.5209C68.9134 59.7398 77.6532 51 88.4343 51H1210.12C1220.8 51 1229.49 59.5783 1229.64 70.2546L1237.73 663.213C1237.88 674.097 1229.1 683 1218.21 683H88.4343C77.6532 683 68.9134 674.26 68.9134 663.479L68.9134 340.778C68.9134 334.113 65.5127 327.908 59.8943 324.322L30.0191 305.256C24.4007 301.67 21 295.466 21 288.801L21 226.657V179.333C21 174.844 22.5474 170.492 25.3815 167.01L44.9567 142.961L64.1025 121.015C67.2044 117.459 68.9134 112.9 68.9134 108.182Z" fill="#D9D9D9"/>
</g>
<line x1="116.999" y1="133.532" x2="800.998" y2="132.5" stroke="black"/>
<path d="M61 187V178.5C61 178.345 60.9639 178.192 60.8944 178.053C60.825 177.914 60.7242 177.793 60.6 177.7L53.6 172.45C53.4269 172.32 53.2164 172.25 53 172.25C52.7836 172.25 52.5731 172.32 52.4 172.45L45.4 177.7C45.2758 177.793 45.175 177.914 45.1056 178.053C45.0361 178.192 45 178.345 45 178.5V187C45 187.265 45.1054 187.52 45.2929 187.707C45.4804 187.895 45.7348 188 46 188H50C50.2652 188 50.5196 187.895 50.7071 187.707C50.8946 187.52 51 187.265 51 187V184C51 183.735 51.1054 183.48 51.2929 183.293C51.4804 183.105 51.7348 183 52 183H54C54.2652 183 54.5196 183.105 54.7071 183.293C54.8946 183.48 55 183.735 55 184V187C55 187.265 55.1054 187.52 55.2929 187.707C55.4804 187.895 55.7348 188 56 188H60C60.2652 188 60.5196 187.895 60.7071 187.707C60.8946 187.52 61 187.265 61 187Z" stroke="black" stroke-width="2" stroke-linecap="round" stroke-linejoin="round"/>
<path d="M55.005 217.003C56.835 217.002 58.61 217.629 60.0339 218.778C61.4578 219.928 62.4446 221.53 62.8297 223.319C63.2148 225.108 62.9749 226.975 62.1501 228.609C61.3252 230.242 59.9653 231.544 58.297 232.296C57.7638 233.475 56.9526 234.507 55.9329 235.303C54.9132 236.1 53.7156 236.637 52.4427 236.869C51.1697 237.101 49.8595 237.021 48.6244 236.636C47.3893 236.25 46.2661 235.571 45.3511 234.656C44.4362 233.741 43.7569 232.618 43.3713 231.383C42.9858 230.148 42.9056 228.837 43.1377 227.564C43.3697 226.291 43.9071 225.094 44.7036 224.074C45.5001 223.054 46.5321 222.243 47.711 221.71C48.3452 220.307 49.3706 219.117 50.6644 218.282C51.9581 217.447 53.4653 217.003 55.005 217.003ZM51.005 223.003C49.4137 223.003 47.8876 223.635 46.7624 224.76C45.6372 225.886 45.005 227.412 45.005 229.003C45.005 230.594 45.6372 232.12 46.7624 233.246C47.8876 234.371 49.4137 235.003 51.005 235.003C52.5963 235.003 54.1225 234.371 55.2477 233.246C56.3729 232.12 57.005 230.594 57.005 229.003C57.005 227.412 56.3729 225.886 55.2477 224.76C54.1225 223.635 52.5963 223.003 51.005 223.003ZM52.005 224.003V225.003H54.005V227.003H50.005C49.8801 227.003 49.7596 227.049 49.6672 227.134C49.5749 227.218 49.5174 227.333 49.5062 227.458C49.4949 227.582 49.5306 227.706 49.6062 227.806C49.6819 227.905 49.7921 227.973 49.915 227.995L50.005 228.003H52.005C52.6681 228.003 53.304 228.266 53.7728 228.735C54.2416 229.204 54.505 229.84 54.505 230.503C54.505 231.166 54.2416 231.802 53.7728 232.271C53.304 232.74 52.6681 233.003 52.005 233.003V234.003H50.005V233.003H48.005V231.003H52.005C52.13 231.003 52.2505 230.957 52.3428 230.872C52.4351 230.788 52.4926 230.673 52.5039 230.548C52.5152 230.424 52.4795 230.3 52.4038 230.2C52.3281 230.101 52.218 230.033 52.095 230.011L52.005 230.003H50.005C49.342 230.003 48.7061 229.74 48.2373 229.271C47.7684 228.802 47.505 228.166 47.505 227.503C47.505 226.84 47.7684 226.204 48.2373 225.735C48.7061 225.266 49.342 225.003 50.005 225.003V224.003H52.005ZM55.005 219.003C54.1575 219.002 53.3195 219.181 52.5463 219.528C51.7731 219.875 51.0825 220.382 50.52 221.016C51.6503 220.947 52.7822 221.12 53.841 221.521C54.8998 221.922 55.8613 222.544 56.662 223.345C57.4626 224.146 58.0841 225.107 58.4855 226.166C58.8868 227.225 59.0588 228.357 58.99 229.487C59.8992 228.679 60.5412 227.613 60.8308 226.431C61.1205 225.25 61.044 224.008 60.6117 222.871C60.1793 221.734 59.4115 220.755 58.41 220.064C57.4085 219.373 56.2206 219.003 55.004 219.003" fill="black"/>
<path d="M58 272L54.956 276.566C54.8589 276.712 54.7252 276.83 54.5682 276.908C54.4113 276.986 54.2366 277.021 54.0617 277.01C53.8868 276.999 53.7178 276.943 53.5716 276.846C53.4255 276.749 53.3073 276.616 53.229 276.459L52.771 275.541C52.6927 275.384 52.5745 275.251 52.4284 275.154C52.2822 275.057 52.1132 275.001 51.9383 274.99C51.7634 274.979 51.5887 275.014 51.4318 275.092C51.2748 275.17 51.1411 275.288 51.044 275.434L48 280" stroke="black" stroke-width="2" stroke-linecap="round" stroke-linejoin="round"/>
<path d="M60 266H46C44.8954 266 44 266.895 44 268V282C44 283.105 44.8954 284 46 284H60C61.1046 284 62 283.105 62 282V268C62 266.895 61.1046 266 60 266Z" stroke="black" stroke-width="2"/>
<rect x="117" y="96" width="684" height="245" rx="16" fill="url(#paint1_linear_1_2)" fill-opacity="0.3"/>
<rect x="853" y="497" width="341" height="146" rx="16" fill="url(#paint2_linear_1_2)" fill-opacity="0.3"/>
<rect x="853" y="88" width="341" height="368" rx="16" fill="url(#paint3_linear_1_2)" fill-opacity="0.3"/>
<rect x="117" y="394" width="684" height="249" rx="16" fill="url(#paint4_linear_1_2)" fill-opacity="0.3"/>
<line x1="116.999" y1="433.532" x2="800.998" y2="432.5" stroke="#737373"/>
<line x1="116.999" y1="133.532" x2="800.998" y2="132.5" stroke="#737373"/>
<line x1="852.999" y1="528.477" x2="1194" y2="527.5" stroke="#737373"/>
<line x1="853" y1="115.532" x2="1194" y2="115.5" stroke="#737373"/>
<defs>
<filter id="filter0_d_1_2" x="5" y="39" width="1248.73" height="664" filterUnits="userSpaceOnUse" color-interpolation-filters="sRGB">
<feFlood flood-opacity="0" result="BackgroundImageFix"/>
<feColorMatrix in="SourceAlpha" type="matrix" values="0 0 0 0 0 0 0 0 0 0 0 0 0 0 0 0 0 0 127 0" result="hardAlpha"/>
<feOffset dy="4"/>
<feGaussianBlur stdDeviation="8"/>
<feComposite in2="hardAlpha" operator="out"/>
<feColorMatrix type="matrix" values="0 0 0 0 0 0 0 0 0 0 0 0 0 0 0 0 0 0 0.25 0"/>
<feBlend mode="normal" in2="BackgroundImageFix" result="effect1_dropShadow_1_2"/>
<feBlend mode="normal" in="SourceGraphic" in2="effect1_dropShadow_1_2" result="shape"/>
</filter>
<linearGradient id="paint0_linear_1_2" x1="0" y1="0" x2="1280" y2="720" gradientUnits="userSpaceOnUse">
<stop stop-color="#1E1E1E"/>
<stop offset="1" stop-color="#848484"/>
</linearGradient>
<linearGradient id="paint1_linear_1_2" x1="459" y1="96" x2="459" y2="341" gradientUnits="userSpaceOnUse">
<stop stop-color="#848484"/>
<stop offset="1"/>
</linearGradient>
<linearGradient id="paint2_linear_1_2" x1="1023.5" y1="497" x2="1023.5" y2="643" gradientUnits="userSpaceOnUse">
<stop stop-color="#848484" stop-opacity="0.84"/>
<stop offset="1"/>
</linearGradient>
<linearGradient id="paint3_linear_1_2" x1="1023.5" y1="88" x2="1023.5" y2="456" gradientUnits="userSpaceOnUse">
<stop stop-color="#848484" stop-opacity="0.84"/>
<stop offset="1"/>
</linearGradient>
<linearGradient id="paint4_linear_1_2" x1="459" y1="394" x2="459" y2="643" gradientUnits="userSpaceOnUse">
<stop stop-color="#737373"/>
<stop offset="1"/>
</linearGradient>
</defs>
</svg>
